<?xml version="1.0" encoding="utf-8"?>
<!-- Generator: Adobe Illustrator 24.2.1, SVG Export Plug-In . SVG Version: 6.00 Build 0)  -->
<svg version="1.1" id="Layer_1" xmlns="http://www.w3.org/2000/svg" xmlns:xlink="http://www.w3.org/1999/xlink" x="0px" y="0px"
	 viewBox="0 0 612 158.7" style="enable-background:new 0 0 612 158.7;" xml:space="preserve">
<style type="text/css">
	.st0{fill:#C3161C;}
	.st1{fill:#FFFFFF;}
	.st2{fill:#EC1C24;}
</style>
<g>
	<g>
		<rect x="120.6" y="106" class="st0" width="299.4" height="34.4"/>
		<g>
			<path class="st1" d="M145.8,129.3v-4.1h-4.4v-3.1h7.6v8.7c0,0-2.4,2.4-7.1,2.4c-5.6,0-10.1-4.2-10.1-9.9c0-5.7,4.3-9.9,10-9.9
				c4.7,0,7.1,2.9,7.1,2.9l-2.2,2.2c0,0-1.6-2-4.9-2c-3.9,0-6.6,3.2-6.6,6.9c0,3.7,2.9,6.9,6.7,6.9
				C144.7,130.2,145.8,129.3,145.8,129.3z"/>
			<path class="st1" d="M155.3,121.6h7.7v3.1h-7.7v5.2h8.5v3.1H152v-19.2h11.6v3.1h-8.3V121.6z"/>
			<path class="st1" d="M184.7,123.4c0,5.7-4.1,9.9-9.7,9.9c-5.6,0-9.7-4.2-9.7-9.9c0-5.7,4.1-9.9,9.7-9.9
				C180.6,113.5,184.7,117.7,184.7,123.4z M181.4,123.4c0-3.7-2.5-6.8-6.4-6.8s-6.4,3.1-6.4,6.8c0,3.7,2.5,6.8,6.4,6.8
				S181.4,127.1,181.4,123.4z"/>
			<path class="st1" d="M187.1,113.8h6.3c3.8,0,6.4,2.5,6.4,6c0,2.9-1.5,5.1-4.3,5.8l4.8,7.5h-3.8l-4.6-7.2h-1.5v7.2h-3.3V113.8z
				 M196.4,119.8c0-1.9-1.3-2.8-3.4-2.8h-2.6v5.7h2.6C195.1,122.6,196.4,121.7,196.4,119.8z"/>
			<path class="st1" d="M215.4,129.3v-4.1H211v-3.1h7.6v8.7c0,0-2.4,2.4-7.1,2.4c-5.6,0-10.1-4.2-10.1-9.9c0-5.7,4.3-9.9,10-9.9
				c4.7,0,7.1,2.9,7.1,2.9l-2.2,2.2c0,0-1.6-2-4.9-2c-3.9,0-6.6,3.2-6.6,6.9c0,3.7,2.9,6.9,6.7,6.9
				C214.3,130.2,215.4,129.3,215.4,129.3z"/>
			<path class="st1" d="M221.9,113.8h3.3V133h-3.3V113.8z"/>
			<path class="st1" d="M234.7,113.8h3.3l7.5,19.2h-3.3l-1.8-4.5h-8.1l-1.8,4.5h-3.3L234.7,113.8z M233.5,125.4h5.8l-2.9-7.5
				L233.5,125.4z"/>
			<path class="st1" d="M254.7,113.8h6.5c3.8,0,6.4,2.6,6.4,6.1c0,3.5-2.5,6.1-6.4,6.1h-3.2v6.9h-3.3V113.8z M264.2,119.9
				c0-1.8-1.2-3-3.4-3h-2.8v6h2.8C263,122.9,264.2,121.7,264.2,119.9z"/>
			<path class="st1" d="M269.6,113.8h6.3c3.8,0,6.4,2.5,6.4,6c0,2.9-1.5,5.1-4.3,5.8l4.8,7.5H279l-4.5-7.2h-1.5v7.2h-3.3V113.8z
				 M278.9,119.8c0-1.9-1.3-2.8-3.4-2.8h-2.6v5.7h2.6C277.6,122.6,278.9,121.7,278.9,119.8z"/>
			<path class="st1" d="M288.3,121.6h7.7v3.1h-7.7v5.2h8.5v3.1h-11.8v-19.2h11.6v3.1h-8.3V121.6z"/>
			<path class="st1" d="M306.1,133.6l-8.6-19.8h3.6l5.1,12.3l5-12.3h3.4L306.1,133.6z"/>
			<path class="st1" d="M319.5,121.6h7.7v3.1h-7.7v5.2h8.5v3.1h-11.8v-19.2h11.6v3.1h-8.3V121.6z"/>
			<path class="st1" d="M333.6,113.8l9.6,13.2v-13.2h3.3V133h-3l-9.6-13.2V133h-3.3v-19.2H333.6z"/>
			<path class="st1" d="M353.6,116.9h-5.3v-3.1h13.9v3.1h-5.3V133h-3.3V116.9z"/>
			<path class="st1" d="M364.4,113.8h3.3V133h-3.3V113.8z"/>
			<path class="st1" d="M389.9,123.4c0,5.7-4.1,9.9-9.7,9.9c-5.6,0-9.7-4.2-9.7-9.9c0-5.7,4.1-9.9,9.7-9.9
				C385.8,113.5,389.9,117.7,389.9,123.4z M386.6,123.4c0-3.7-2.5-6.8-6.4-6.8c-3.9,0-6.4,3.1-6.4,6.8c0,3.7,2.5,6.8,6.4,6.8
				C384.1,130.2,386.6,127.1,386.6,123.4z"/>
			<path class="st1" d="M395.3,113.8l9.6,13.2v-13.2h3.3V133h-3l-9.6-13.2V133h-3.3v-19.2H395.3z"/>
		</g>
	</g>
	<g>
		<path class="st0" d="M140.9,69c-1-0.8-2.1-1.4-3.4-1.9c-1.2-0.5-2.5-0.9-3.8-1.4c-1.3-0.4-2.5-0.8-3.4-1.2
			c-0.9-0.4-1.6-0.8-2.1-1.3c-0.5-0.4-0.9-0.9-1.1-1.5c-0.2-0.5-0.3-1.2-0.3-1.9c0-0.9,0.2-1.7,0.6-2.4c0.4-0.7,0.9-1.2,1.5-1.6
			c0.6-0.4,1.4-0.7,2.2-1c1.9-0.5,4-0.4,5.9,0.4c1,0.5,1.9,1.2,2.5,2.2l0.3,0.4l4-3.5l-0.3-0.3c-1.3-1.5-2.8-2.6-4.4-3.2
			c-1.6-0.6-3.4-0.9-5.4-0.9c-1.5,0-3,0.2-4.4,0.6c-1.4,0.4-2.7,1.1-3.8,1.9c-1.1,0.9-2,1.9-2.7,3.2c-0.7,1.3-1,2.8-1,4.5
			c0,1.5,0.2,2.7,0.7,3.8c0.5,1.1,1.1,2,1.9,2.7c0.8,0.7,1.7,1.4,2.8,1.9c1,0.5,2.2,1,3.4,1.3l3.9,1.3c1.1,0.4,2,0.8,2.7,1.3
			c0.7,0.4,1.2,1,1.5,1.6c0.3,0.6,0.5,1.4,0.5,2.4c0,0.9-0.2,1.7-0.6,2.3c-0.4,0.7-1,1.3-1.6,1.7c-0.7,0.5-1.4,0.8-2.3,1.1
			c-2.3,0.7-4.5,0.4-6.5-0.6c-1.2-0.6-2.2-1.5-2.9-2.7l-0.2-0.4l-4.1,3.4l0.2,0.3c0.6,0.9,1.3,1.7,2.2,2.3c0.8,0.6,1.7,1.1,2.7,1.5
			c0.9,0.4,1.9,0.7,2.9,0.8c1,0.2,2,0.3,3.1,0.3c1.6,0,3.1-0.2,4.6-0.6c1.5-0.4,2.8-1.1,4-1.9c1.1-0.8,2.1-1.9,2.8-3.2
			c0.7-1.3,1.1-2.9,1.1-4.6c0-1.7-0.3-3.2-0.9-4.3C142.6,70.8,141.8,69.8,140.9,69z"/>
		<path class="st0" d="M160.9,81.3c-0.5,0.2-1,0.4-1.5,0.5c-1.3,0.3-2.7,0.2-3.3-0.2c-0.4-0.2-0.7-0.5-0.8-0.9
			c-0.2-0.4-0.3-0.9-0.3-1.5c0-0.6,0-1.3,0-2V66.5h6.6v-4h-6.6v-6.4h-4.6v6.4h-4.9v4h4.9v11.9c0,1.2,0.1,2.3,0.2,3.2
			c0.2,1,0.5,1.9,1,2.6c0.5,0.7,1.2,1.3,2,1.6c0.8,0.4,2,0.6,3.4,0.6c0.7,0,1.5-0.1,2.3-0.2c0.8-0.1,1.6-0.4,2.2-0.7l0.3-0.1
			l-0.2-4.3L160.9,81.3z"/>
		<path class="st0" d="M184.1,83.4c-0.1-0.7-0.1-1.3-0.1-2v-9.7c0-3.3-0.8-5.8-2.3-7.5c-1.6-1.7-4.1-2.5-7.5-2.5
			c-1.7,0-3.3,0.3-5,0.9c-1.6,0.6-3.1,1.5-4.3,2.7l-0.3,0.3l2.9,3l0.3-0.3c0.9-0.8,1.8-1.4,3-1.8c1.1-0.4,2.3-0.6,3.4-0.6
			c1.7,0,2.9,0.4,3.8,1.2c0.9,0.8,1.3,1.9,1.3,3.4V71h-1c-1.4,0-2.9,0.1-4.6,0.2c-1.7,0.1-3.3,0.5-4.7,1c-1.5,0.5-2.7,1.4-3.8,2.5
			c-1,1.1-1.6,2.7-1.6,4.7c0,1.2,0.2,2.2,0.7,3.1c0.5,0.9,1.1,1.6,1.9,2.2c0.8,0.6,1.7,1,2.8,1.3c1,0.3,2.2,0.5,3.4,0.5
			c1.8,0,3.4-0.4,4.7-1.2c0.9-0.6,1.8-1.3,2.4-2.1c0,0.2,0,0.3,0,0.5c0,0.7,0.1,1.3,0.2,1.8l0.1,0.3h4.4l-0.1-0.5
			C184.3,84.7,184.2,84.1,184.1,83.4z M179.4,75v1c0,0.9-0.2,1.7-0.5,2.5c-0.3,0.8-0.7,1.4-1.2,2c-0.5,0.6-1.1,1-1.9,1.4
			c-0.8,0.3-1.7,0.5-2.7,0.5c-1.3,0-2.4-0.3-3.3-0.8c-0.8-0.5-1.2-1.4-1.2-2.6c0-1.4,0.6-2.3,1.9-2.9c1.3-0.6,3.2-1,5.5-1H179.4z"/>
		<path class="st0" d="M202.1,81.3c-0.5,0.2-1,0.4-1.5,0.5c-1.3,0.3-2.7,0.2-3.3-0.2c-0.4-0.2-0.7-0.5-0.8-0.9
			c-0.2-0.4-0.3-0.9-0.3-1.5c0-0.6,0-1.3,0-2V66.5h6.6v-4H196v-6.4h-4.6v6.4h-4.9v4h4.9v11.9c0,1.2,0.1,2.3,0.2,3.2
			c0.2,1,0.5,1.9,1,2.6c0.5,0.7,1.2,1.3,2.1,1.6c0.8,0.4,2,0.6,3.4,0.6c0.7,0,1.5-0.1,2.3-0.2c0.8-0.1,1.6-0.4,2.2-0.7l0.3-0.1
			l-0.2-4.3L202.1,81.3z"/>
		<path class="st0" d="M224.6,65.1c-1-1-2.2-1.9-3.5-2.4c-1.4-0.5-2.9-0.8-4.5-0.8c-1.7,0-3.3,0.3-4.8,0.9c-1.5,0.6-2.7,1.4-3.8,2.5
			c-1.1,1.1-1.9,2.4-2.5,3.9c-0.6,1.5-0.9,3.2-0.9,4.9c0,1.7,0.3,3.3,0.8,4.8c0.5,1.5,1.3,2.8,2.3,3.9c1,1.1,2.3,2,3.7,2.6
			c1.5,0.6,3.1,1,4.9,1c2.2,0,4.1-0.4,5.7-1.1c1.7-0.7,3.2-2,4.6-3.8l0.3-0.3l-3.5-2.7l-0.3,0.3c-0.9,1.1-1.8,1.9-2.9,2.4
			c-1.1,0.5-2.4,0.8-3.9,0.8c-1,0-1.9-0.2-2.7-0.5c-0.8-0.4-1.5-0.9-2.1-1.5c-0.6-0.6-1.1-1.4-1.5-2.2c-0.3-0.7-0.5-1.4-0.6-2.2
			h18.1v-1.6c0-1.9-0.3-3.6-0.8-5.1C226.3,67.4,225.6,66.2,224.6,65.1z M222.7,71.7h-13.2c0.3-1.6,1-2.9,2.1-3.9
			c1.2-1.1,2.8-1.6,4.8-1.6c2,0,3.5,0.5,4.6,1.6C222,68.8,222.6,70.1,222.7,71.7z"/>
		<path class="st0" d="M272.4,55.2c-1.6-1.6-3.6-2.9-5.8-3.8c-2.2-0.9-4.7-1.4-7.3-1.4s-5.1,0.5-7.3,1.4c-2.2,0.9-4.1,2.2-5.8,3.8
			c-1.6,1.6-2.9,3.6-3.8,5.8c-0.9,2.2-1.4,4.7-1.4,7.3c0,2.6,0.5,5.1,1.4,7.3c0.9,2.2,2.2,4.2,3.8,5.8c1.6,1.6,3.6,2.9,5.8,3.8
			c2.2,0.9,4.7,1.4,7.3,1.4s5.1-0.5,7.3-1.4c2.2-0.9,4.1-2.2,5.8-3.8c1.6-1.6,2.9-3.6,3.8-5.8c0.9-2.2,1.4-4.7,1.4-7.3
			c0-2.6-0.5-5.1-1.4-7.3C275.3,58.8,274,56.9,272.4,55.2z M259.3,82.1c-1.9,0-3.7-0.4-5.3-1.1c-1.6-0.7-3-1.7-4.1-2.9
			c-1.1-1.2-2-2.7-2.7-4.4c-0.6-1.7-1-3.5-1-5.4c0-1.9,0.3-3.7,1-5.4c0.6-1.7,1.5-3.1,2.7-4.4c1.1-1.2,2.5-2.2,4.1-2.9
			c1.6-0.7,3.4-1.1,5.3-1.1c1.9,0,3.7,0.4,5.3,1.1c1.6,0.7,3,1.7,4.1,2.9c1.1,1.2,2,2.7,2.7,4.4c0.6,1.7,1,3.5,1,5.4
			c0,1.9-0.3,3.7-1,5.4c-0.6,1.7-1.5,3.1-2.7,4.4c-1.1,1.2-2.5,2.2-4.1,2.9C263,81.7,261.2,82.1,259.3,82.1z"/>
		<path class="st0" d="M302.5,65.4c-1.1-1.1-2.4-2-3.9-2.6c-1.5-0.6-3.2-0.9-5-0.9c-1.7,0-3.3,0.4-4.7,1.1c-1.1,0.6-2.2,1.3-3.1,2.2
			v-2.7h-4.6v34.3h4.6V82.6c0.7,0.9,1.6,1.7,2.8,2.4c1.6,0.9,3.4,1.4,5.5,1.4c1.6,0,3.2-0.3,4.6-0.9c1.4-0.6,2.7-1.5,3.7-2.6
			s1.9-2.4,2.5-3.9s0.9-3.1,0.9-4.9s-0.3-3.4-0.9-4.9C304.4,67.8,303.6,66.5,302.5,65.4z M301,74.1c0,1.1-0.2,2.2-0.5,3.1
			c-0.3,1-0.9,1.8-1.5,2.5c-0.7,0.7-1.5,1.3-2.4,1.7c-1.8,0.8-4.4,0.8-6.2,0c-0.9-0.4-1.7-1-2.4-1.7c-0.7-0.7-1.2-1.5-1.5-2.5
			c-0.3-1-0.5-2-0.5-3.1c0-1.1,0.2-2.2,0.5-3.1c0.3-1,0.9-1.8,1.5-2.5c0.7-0.7,1.5-1.3,2.4-1.7c0.9-0.4,2-0.6,3.1-0.6
			c1.1,0,2.2,0.2,3.1,0.6c0.9,0.4,1.7,1,2.4,1.7c0.7,0.7,1.2,1.6,1.5,2.5C300.9,71.9,301,73,301,74.1z"/>
		<rect x="310.3" y="62.4" class="st0" width="4.6" height="23.3"/>
		<path class="st0" d="M312.6,50.9c-0.9,0-1.6,0.3-2.2,0.9c-0.6,0.6-0.9,1.4-0.9,2.2c0,0.9,0.3,1.7,0.9,2.3c0.6,0.6,1.4,0.9,2.3,0.9
			c0.9,0,1.7-0.3,2.3-0.9c0.6-0.6,0.9-1.4,0.9-2.3c0-0.8-0.3-1.6-0.9-2.2C314.2,51.2,313.4,50.9,312.6,50.9z"/>
		<path class="st0" d="M340.5,65.3c-1.1-1.1-2.4-1.9-3.9-2.5c-1.5-0.6-3.2-0.9-5-0.9s-3.4,0.3-5,0.9c-1.5,0.6-2.8,1.4-3.9,2.5
			c-1.1,1.1-2,2.4-2.6,3.9c-0.6,1.5-0.9,3.2-0.9,5c0,1.8,0.3,3.5,0.9,5c0.6,1.5,1.5,2.8,2.6,3.9c1.1,1.1,2.4,1.9,3.9,2.5
			c1.5,0.6,3.2,0.9,5,0.9s3.4-0.3,5-0.9c1.5-0.6,2.8-1.4,3.9-2.5c1.1-1.1,2-2.4,2.6-3.9c0.6-1.5,0.9-3.2,0.9-5c0-1.8-0.3-3.5-0.9-5
			C342.5,67.7,341.6,66.4,340.5,65.3z M339.2,74.1c0,1.1-0.2,2.2-0.5,3.1c-0.3,1-0.9,1.8-1.5,2.5c-0.7,0.7-1.5,1.3-2.4,1.7
			c-1.8,0.8-4.4,0.8-6.2,0c-0.9-0.4-1.7-1-2.4-1.7c-0.7-0.7-1.2-1.5-1.5-2.5c-0.4-1-0.5-2-0.5-3.1c0-1.1,0.2-2.2,0.5-3.1
			c0.3-0.9,0.9-1.8,1.5-2.5c0.7-0.7,1.5-1.3,2.4-1.7c0.9-0.4,2-0.6,3.1-0.6c1.1,0,2.2,0.2,3.1,0.6c0.9,0.4,1.7,1,2.4,1.7
			c0.7,0.7,1.2,1.6,1.5,2.5C339,71.9,339.2,73,339.2,74.1z"/>
		<path class="st0" d="M350.7,50.9c-0.9,0-1.6,0.3-2.2,0.9c-0.6,0.6-0.9,1.4-0.9,2.2c0,0.9,0.3,1.7,0.9,2.3c0.6,0.6,1.4,0.9,2.3,0.9
			c0.9,0,1.7-0.3,2.3-0.9c0.6-0.6,0.9-1.4,0.9-2.3c0-0.8-0.3-1.6-0.9-2.2C352.4,51.2,351.6,50.9,350.7,50.9z"/>
		<rect x="348.4" y="62.4" class="st0" width="4.6" height="23.3"/>
		<path class="st0" d="M377.4,65.2c-0.9-0.9-1.9-1.7-3.1-2.2c-1.4-0.7-3-1.1-4.7-1.1c-1.8,0-3.5,0.3-5,0.9c-1.5,0.6-2.8,1.5-3.9,2.6
			c-1.1,1.1-1.9,2.4-2.5,3.9c-0.6,1.5-0.9,3.1-0.9,4.9s0.3,3.4,0.9,4.9c0.6,1.5,1.4,2.8,2.5,3.9c1,1.1,2.3,2,3.7,2.6
			c1.4,0.6,3,0.9,4.6,0.9c2.1,0,3.9-0.5,5.5-1.4c1.2-0.7,2.1-1.5,2.8-2.4v3.2h4.6V48.6h-4.6V65.2z M375.3,68.5
			c0.7,0.7,1.2,1.6,1.5,2.5c0.4,1,0.5,2,0.5,3.1c0,1.1-0.2,2.2-0.5,3.1c-0.3,1-0.9,1.8-1.5,2.5c-0.7,0.7-1.5,1.3-2.4,1.7
			c-1.8,0.8-4.4,0.8-6.2,0c-0.9-0.4-1.7-1-2.4-1.7c-0.7-0.7-1.2-1.5-1.5-2.5c-0.3-1-0.5-2-0.5-3.1c0-1.1,0.2-2.2,0.5-3.1
			c0.3-0.9,0.9-1.8,1.5-2.5c0.7-0.7,1.5-1.3,2.4-1.7c0.9-0.4,2-0.6,3.1-0.6c1.2,0,2.2,0.2,3.1,0.6C373.8,67.2,374.6,67.8,375.3,68.5
			z"/>
		<path class="st0" d="M420.9,67.1c1.6-1.6,2.4-3.8,2.4-6.3c0-2.2-0.4-4-1.3-5.3c-0.8-1.3-1.9-2.3-3.3-3c-1.3-0.7-2.8-1.1-4.5-1.3
			c-1.6-0.2-3.3-0.3-4.9-0.3h-9.1v34.9h4.9V70.5h4.5l9.2,15.3h5.9L415,70C417.4,69.5,419.4,68.5,420.9,67.1z M418.1,60.7
			c0,1.3-0.3,2.3-0.9,3c-0.6,0.7-1.4,1.2-2.3,1.5c-1,0.3-2,0.5-3.2,0.6c-1.2,0.1-2.4,0.1-3.5,0.1H405V55.5h5.2c1,0,1.9,0.1,2.9,0.2
			c0.9,0.1,1.8,0.4,2.5,0.8c0.7,0.4,1.3,0.9,1.7,1.6C417.9,58.7,418.1,59.6,418.1,60.7z"/>
		<path class="st0" d="M444.9,65.1c-1-1-2.2-1.9-3.5-2.4c-1.4-0.5-2.9-0.8-4.5-0.8c-1.7,0-3.3,0.3-4.8,0.9c-1.5,0.6-2.7,1.4-3.8,2.5
			c-1.1,1.1-1.9,2.4-2.5,3.9c-0.6,1.5-0.9,3.2-0.9,4.9c0,1.7,0.3,3.3,0.8,4.8c0.5,1.5,1.3,2.8,2.3,3.9c1,1.1,2.3,2,3.7,2.6
			c1.5,0.6,3.1,1,4.9,1c2.2,0,4.1-0.4,5.7-1.1c1.7-0.7,3.2-2,4.6-3.8l0.3-0.3l-3.5-2.7l-0.3,0.3c-0.9,1.1-1.8,1.9-2.9,2.4
			c-1.1,0.5-2.4,0.8-3.9,0.8c-1,0-1.9-0.2-2.7-0.5c-0.8-0.4-1.5-0.9-2.1-1.5c-0.6-0.6-1.1-1.4-1.5-2.2c-0.3-0.7-0.5-1.4-0.6-2.2H448
			v-1.6c0-1.9-0.3-3.6-0.8-5.1C446.7,67.4,445.9,66.2,444.9,65.1z M443.1,71.7h-13.2c0.3-1.6,1-2.9,2.1-3.9c1.2-1.1,2.8-1.6,4.8-1.6
			c2,0,3.5,0.5,4.6,1.6C442.4,68.8,443,70.1,443.1,71.7z"/>
		<path class="st0" d="M466.2,73.8c-0.7-0.5-1.5-1-2.5-1.3c-0.9-0.3-1.9-0.6-2.9-0.8c-0.7-0.1-1.4-0.3-2.1-0.5
			c-0.7-0.2-1.3-0.4-1.8-0.6c-0.5-0.2-0.9-0.5-1.1-0.8c-0.2-0.3-0.3-0.6-0.3-0.9c0-0.4,0.1-0.8,0.3-1.1c0.2-0.3,0.5-0.6,0.9-0.9
			c0.4-0.2,0.8-0.4,1.3-0.5c1.6-0.4,3.1-0.2,4.1,0.5c0.7,0.5,1.3,1.1,1.8,1.8l0.2,0.4l3.8-2.5l-0.2-0.3c-0.8-1.5-1.9-2.6-3.4-3.3
			c-1.4-0.7-3-1-4.6-1c-1.1,0-2.2,0.2-3.2,0.4c-1,0.3-2,0.7-2.8,1.3c-0.9,0.6-1.5,1.3-2.1,2.2c-0.5,0.9-0.8,1.9-0.8,3.1
			c0,1.2,0.2,2.2,0.7,3c0.5,0.8,1.1,1.4,1.9,1.9c0.8,0.5,1.6,0.9,2.6,1.2c1,0.3,2,0.6,3.1,0.8c0.6,0.1,1.2,0.3,1.8,0.4
			c0.5,0.2,1,0.4,1.4,0.6c0.4,0.2,0.7,0.5,1,0.9c0.2,0.3,0.3,0.7,0.3,1.2c0,0.5-0.1,1-0.4,1.3c-0.3,0.4-0.6,0.7-1,1
			c-0.4,0.3-0.9,0.5-1.5,0.6c-0.6,0.1-1.1,0.2-1.7,0.2c-1.3,0-2.3-0.3-3.1-0.8c-0.8-0.5-1.6-1.2-2.3-2.1l-0.3-0.3l-3.6,2.8l0.2,0.3
			c1.2,1.7,2.5,2.8,4,3.4c1.4,0.6,3.2,0.9,5.1,0.9c1.1,0,2.3-0.1,3.4-0.4c1.1-0.3,2.1-0.7,3-1.3c0.9-0.6,1.6-1.4,2.2-2.3
			c0.5-1,0.8-2.1,0.8-3.5c0-1.2-0.2-2.2-0.6-3C467.5,75,467,74.3,466.2,73.8z"/>
		<path class="st0" d="M493,65.4c-1.1-1.1-2.4-2-3.9-2.6c-1.5-0.6-3.2-0.9-5-0.9c-1.7,0-3.3,0.4-4.7,1.1c-1.1,0.6-2.2,1.3-3.1,2.2
			v-2.7h-4.6v34.3h4.6V82.6c0.7,0.9,1.6,1.7,2.8,2.4c1.6,0.9,3.4,1.4,5.5,1.4c1.6,0,3.2-0.3,4.6-0.9c1.4-0.6,2.7-1.5,3.7-2.6
			c1-1.1,1.9-2.4,2.5-3.9c0.6-1.5,0.9-3.1,0.9-4.9s-0.3-3.4-0.9-4.9C494.9,67.8,494.1,66.5,493,65.4z M491.5,74.1
			c0,1.1-0.2,2.2-0.5,3.1c-0.3,1-0.9,1.8-1.5,2.5c-0.7,0.7-1.5,1.3-2.4,1.7c-1.8,0.8-4.4,0.8-6.2,0c-0.9-0.4-1.7-1-2.4-1.7
			c-0.7-0.7-1.2-1.5-1.5-2.5c-0.4-1-0.5-2-0.5-3.1c0-1.1,0.2-2.2,0.5-3.1c0.3-1,0.9-1.8,1.5-2.5c0.7-0.7,1.5-1.3,2.4-1.7
			c0.9-0.4,2-0.6,3.1-0.6c1.1,0,2.2,0.2,3.1,0.6c0.9,0.4,1.7,1,2.4,1.7c0.7,0.7,1.2,1.6,1.5,2.5C491.3,71.9,491.5,73,491.5,74.1z"/>
		<path class="st0" d="M520.7,65.3c-1.1-1.1-2.4-1.9-3.9-2.5c-1.5-0.6-3.2-0.9-5-0.9c-1.8,0-3.4,0.3-5,0.9c-1.5,0.6-2.8,1.4-3.9,2.5
			c-1.1,1.1-2,2.4-2.6,3.9c-0.6,1.5-0.9,3.2-0.9,5c0,1.8,0.3,3.5,0.9,5c0.6,1.5,1.5,2.8,2.6,3.9c1.1,1.1,2.4,1.9,3.9,2.5
			c1.5,0.6,3.2,0.9,5,0.9c1.8,0,3.4-0.3,5-0.9c1.5-0.6,2.8-1.4,3.9-2.5c1.1-1.1,2-2.4,2.6-3.9c0.6-1.5,0.9-3.2,0.9-5
			c0-1.8-0.3-3.5-0.9-5C522.7,67.7,521.8,66.4,520.7,65.3z M519.4,74.1c0,1.1-0.2,2.2-0.5,3.1c-0.3,1-0.9,1.8-1.5,2.5
			c-0.7,0.7-1.5,1.3-2.4,1.7c-1.8,0.8-4.4,0.8-6.2,0c-0.9-0.4-1.7-1-2.4-1.7c-0.7-0.7-1.2-1.5-1.5-2.5c-0.3-1-0.5-2-0.5-3.1
			c0-1.1,0.2-2.2,0.5-3.1c0.3-0.9,0.9-1.8,1.5-2.5c0.7-0.7,1.5-1.3,2.4-1.7c0.9-0.4,2-0.6,3.1-0.6s2.2,0.2,3.1,0.6
			c0.9,0.4,1.7,1,2.4,1.7c0.7,0.7,1.2,1.6,1.5,2.5C519.2,71.9,519.4,73,519.4,74.1z"/>
		<path class="st0" d="M545.8,64.6c-0.7-0.8-1.7-1.5-2.8-2c-1.1-0.5-2.5-0.7-4-0.7c-1,0-1.9,0.1-2.7,0.4c-0.8,0.3-1.6,0.6-2.3,1
			c-0.7,0.4-1.3,0.9-1.7,1.4c-0.2,0.2-0.3,0.4-0.5,0.6c0-0.2,0-0.4,0-0.6c0-0.6,0-1.2,0-1.8v-0.4h-4.4v0.4c0,0.8,0,1.6,0.1,2.5
			c0.1,0.9,0.1,1.8,0.1,2.9v17.6h4.6V74.4c0-1.2,0.1-2.4,0.4-3.4c0.3-1,0.7-1.9,1.2-2.6c0.5-0.7,1.2-1.3,2-1.6
			c0.8-0.4,1.8-0.6,3-0.6c1.6,0,2.8,0.5,3.6,1.5c0.8,1,1.2,2.4,1.2,4.2v13.9h4.6V71.5c0-1.4-0.2-2.7-0.5-3.8
			C547.1,66.4,546.6,65.4,545.8,64.6z"/>
		<path class="st0" d="M567.1,73.8c-0.7-0.5-1.5-1-2.5-1.3c-0.9-0.3-1.9-0.6-2.9-0.8c-0.7-0.1-1.4-0.3-2.1-0.5
			c-0.7-0.2-1.2-0.4-1.8-0.6c-0.5-0.2-0.9-0.5-1.1-0.8c-0.2-0.3-0.3-0.6-0.3-0.9c0-0.4,0.1-0.8,0.3-1.1c0.2-0.3,0.5-0.6,0.9-0.9
			c0.4-0.2,0.8-0.4,1.3-0.5c1.6-0.4,3.1-0.2,4.1,0.5c0.7,0.5,1.3,1.1,1.8,1.8L565,69l3.8-2.5l-0.2-0.3c-0.8-1.5-1.9-2.6-3.4-3.3
			c-1.4-0.7-3-1-4.6-1c-1.1,0-2.2,0.2-3.2,0.4c-1,0.3-2,0.7-2.8,1.3c-0.9,0.6-1.5,1.3-2.1,2.2c-0.5,0.9-0.8,1.9-0.8,3.1
			c0,1.2,0.2,2.3,0.7,3c0.5,0.8,1.1,1.4,1.9,1.9c0.8,0.5,1.6,0.9,2.6,1.2c1,0.3,2,0.6,3.1,0.8c0.6,0.1,1.2,0.3,1.8,0.4
			c0.5,0.2,1,0.4,1.4,0.6c0.4,0.2,0.7,0.5,1,0.9c0.2,0.3,0.3,0.7,0.3,1.2c0,0.5-0.1,1-0.4,1.3c-0.3,0.4-0.6,0.7-1,1
			c-0.4,0.3-0.9,0.5-1.5,0.6c-0.6,0.1-1.1,0.2-1.7,0.2c-1.3,0-2.3-0.3-3.1-0.8c-0.8-0.5-1.6-1.2-2.3-2.1l-0.3-0.3l-3.6,2.8l0.2,0.3
			c1.2,1.7,2.5,2.8,4,3.4c1.4,0.6,3.2,0.9,5.1,0.9c1.1,0,2.3-0.1,3.4-0.4c1.1-0.3,2.1-0.7,3-1.3c0.9-0.6,1.6-1.4,2.2-2.3
			c0.5-1,0.8-2.1,0.8-3.5c0-1.2-0.2-2.2-0.6-3C568.3,75,567.8,74.3,567.1,73.8z"/>
		<path class="st0" d="M595,74.1c0-1.9-0.3-3.6-0.8-5.1c-0.5-1.5-1.3-2.8-2.3-3.8c-1-1-2.2-1.9-3.5-2.4c-1.4-0.5-2.9-0.8-4.5-0.8
			c-1.7,0-3.3,0.3-4.8,0.9c-1.5,0.6-2.7,1.4-3.8,2.5c-1.1,1.1-1.9,2.4-2.5,3.9c-0.6,1.5-0.9,3.2-0.9,4.9c0,1.7,0.3,3.3,0.8,4.8
			c0.5,1.5,1.3,2.8,2.3,3.9c1,1.1,2.3,2,3.7,2.6c1.5,0.6,3.1,1,4.9,1c2.2,0,4.1-0.4,5.7-1.1c1.7-0.7,3.2-2,4.6-3.8l0.3-0.3l-3.5-2.7
			l-0.3,0.3c-0.9,1.1-1.8,1.9-2.9,2.4c-1.1,0.5-2.4,0.8-3.9,0.8c-1,0-1.9-0.2-2.7-0.5c-0.8-0.4-1.5-0.9-2.1-1.5
			c-0.6-0.6-1.1-1.4-1.5-2.2c-0.3-0.7-0.5-1.4-0.6-2.2H595V74.1z M590.1,71.7h-13.2c0.3-1.6,1-2.9,2.1-3.9c1.2-1.1,2.8-1.6,4.8-1.6
			c2,0,3.5,0.5,4.6,1.6C589.4,68.8,590,70.1,590.1,71.7z"/>
	</g>
	<g>
		<path class="st0" d="M76.6,66.4c-7.7,7.1-7.7,16.6-5.3,26c0.4,1.5,0.8,2.9,1.4,4.3c-0.3-0.9-1.7-16,9.3-23.7
			c7.4-5.2,17.2-7.7,26.2-7.1l-2.1-9.3c-0.9-0.1-1.9-0.1-2.8-0.1C93.6,56.6,83.6,59.9,76.6,66.4"/>
		<path class="st2" d="M59.1,62c-1.9-2.9-2.2-6.5-0.1-9.4c2.1-3,7.1-4.4,9.7-1.3C74.2,57.5,64.9,68.6,59.1,62L59.1,62z M73,51.3
			c-3.4-4.5-10.2-7.6-15.7-4.9c-5.9,3-6.1,10.4-2.6,15.3c0,0,0,0,0,0.1c0.1,0.2,0.2,0.3,0.3,0.5c3.8,4.4,10.7,7.7,16.2,4.2
			C76.7,63.1,76.6,56,73,51.3L73,51.3z"/>
		<path class="st2" d="M37.3,12.6c0.1,0.3,4.9,9.7-2.9,18.9c-4.2,5-10.2,9-14.9,13.7c-3.3,3.3-6.3,6.8-6.4,10.8v0.1
			c0,0.8,0.1,1.6,0.4,2.5c0.3,0.9,0.5,1.7,1.2,3c0.3,0.6,1,1.7,1,1.8c0,0,0-0.1,0-0.1c0-0.3,0.1-0.9,0.2-1.7
			c0.1-0.5,0.2-1.1,0.4-1.7c0,0,0,0,0,0c0.4-1.2,0.9-2.5,1.9-3.8c2-2.6,4.4-5.1,7.1-7.4c4.9-4.3,11.8-9,14.2-14.3
			C46,19.6,37.4,12.7,37.3,12.6L37.3,12.6z"/>
		<path class="st2" d="M66.2,87.2c-0.5-1.9-1.3-4.2-2.3-6.3c-0.2-0.4-0.4-0.8-0.6-1.1c-0.1-0.1-0.1-0.2-0.1-0.2
			c0.4,1.2,0.6,2.4,0.6,3.6c0.3,5.9-2.8,11.5-6.1,15.6c-8.1,10.2-20.3,19.1-33.3,26.5l2.7,6.3c9.9-5.6,19.3-12.2,26.8-19.5
			C61.6,104.9,68.5,96,66.2,87.2L66.2,87.2z"/>
		<path class="st0" d="M63.2,79.6c-0.1-0.1-1-1.6-1.8-2.6c-3.8-4.5-10.1-7.7-16.6-10.1c-5.9-2.1-11.7-3.4-18.3-4.4
			c-3.6-0.5-7.4-1.1-10.2-2.7c0,0,0,0,0,0c-0.2,0.6-0.3,1.2-0.4,1.7c-0.1,0.8-0.2,1.3-0.2,1.7c0,0,0,0.1,0,0.1c0,0,0.4,0.6,0.7,0.9
			c1.9,2.1,4.9,3.2,8.3,3.8c3.8,0.7,7.8,1,11.6,1.8c4.3,0.8,8.4,2.2,12.3,3.8c4.6,1.8,9.2,3.9,12.6,6.8c0.8,0.6,1.8,1.7,2.6,2.6
			C63.8,82,63.6,80.8,63.2,79.6L63.2,79.6z"/>
		<path class="st2" d="M72.7,96.8c0,0,2.4,24.9-6,45l7.4,0C79.4,110.7,72.7,96.8,72.7,96.8L72.7,96.8z"/>
	</g>
</g>
</svg>
