<?xml version="1.0" encoding="utf-8"?>
<!-- Generator: Adobe Illustrator 24.2.1, SVG Export Plug-In . SVG Version: 6.00 Build 0)  -->
<svg version="1.1" id="Layer_1" xmlns="http://www.w3.org/2000/svg" xmlns:xlink="http://www.w3.org/1999/xlink" x="0px" y="0px"
	 viewBox="0 0 251.9 168.8" style="enable-background:new 0 0 251.9 168.8;" xml:space="preserve">
<style type="text/css">
	.st0{fill:#C3161C;}
	.st1{fill:#FFFFFF;}
	.st2{fill:#EC1C24;}
</style>
<g>
	<g>
		<path class="st0" d="M16.2,40.8c0.6,0.5,1.3,0.8,2,1.1c0.7,0.3,1.5,0.5,2.2,0.6c0.8,0.1,1.5,0.2,2.3,0.2c1.2,0,2.4-0.2,3.5-0.5
			c1.1-0.3,2.1-0.8,3-1.4c0.9-0.6,1.6-1.5,2.1-2.5c0.5-1,0.8-2.2,0.8-3.5c0-1.3-0.2-2.4-0.7-3.3c-0.4-0.9-1.1-1.6-1.8-2.2
			c-0.7-0.6-1.6-1.1-2.6-1.4c-0.9-0.4-1.9-0.7-2.9-1c-1-0.3-1.9-0.6-2.5-0.9c-0.7-0.3-1.2-0.6-1.6-1c-0.4-0.3-0.6-0.7-0.8-1.1
			c-0.2-0.4-0.2-0.9-0.2-1.4c0-0.7,0.1-1.3,0.4-1.8c0.3-0.5,0.7-0.9,1.1-1.2c0.5-0.3,1-0.6,1.7-0.7c1.5-0.4,3-0.3,4.4,0.3
			c0.8,0.3,1.4,0.9,1.9,1.7l0.2,0.4l3.1-2.7l-0.2-0.3c-1-1.2-2.1-2-3.4-2.4c-1.2-0.5-2.6-0.7-4.1-0.7c-1.2,0-2.3,0.2-3.4,0.5
			c-1.1,0.3-2.1,0.8-2.9,1.5c-0.9,0.6-1.6,1.5-2.1,2.4c-0.5,1-0.8,2.1-0.8,3.4c0,1.1,0.2,2.1,0.5,2.9c0.3,0.8,0.8,1.5,1.4,2.1
			c0.6,0.6,1.3,1.1,2.1,1.4c0.8,0.4,1.7,0.7,2.6,1l3,1c0.8,0.3,1.5,0.6,2,0.9c0.5,0.3,0.9,0.7,1.1,1.2c0.2,0.4,0.4,1,0.4,1.8
			c0,0.7-0.2,1.2-0.5,1.7c-0.3,0.5-0.7,0.9-1.2,1.3c-0.5,0.4-1.1,0.6-1.7,0.8c-1.7,0.5-3.4,0.3-4.9-0.4c-0.9-0.5-1.7-1.1-2.2-2
			l-0.2-0.4l-3.2,2.6l0.2,0.3C15,39.8,15.6,40.4,16.2,40.8z"/>
		<path class="st0" d="M36.7,36.6c0,0.9,0.1,1.7,0.2,2.4c0.1,0.8,0.4,1.4,0.7,1.9c0.4,0.5,0.9,1,1.6,1.2c0.6,0.3,1.5,0.4,2.6,0.4
			c0.5,0,1.1-0.1,1.7-0.2c0.6-0.1,1.2-0.3,1.7-0.5l0.2-0.1l-0.1-3.4l-0.5,0.2c-0.4,0.2-0.7,0.3-1.2,0.4c-1,0.2-2,0.2-2.5-0.1
			c-0.3-0.2-0.5-0.4-0.6-0.7c-0.1-0.3-0.2-0.7-0.3-1.1c0-0.5,0-1,0-1.5v-8.1h5v-3.1h-5v-4.8h-3.5v4.8H33v3.1h3.7V36.6z"/>
		<path class="st0" d="M58.6,30.9c-1,0-2.2,0-3.5,0.1c-1.3,0.1-2.5,0.3-3.6,0.7c-1.1,0.4-2.1,1-2.8,1.9c-0.8,0.9-1.2,2-1.2,3.5
			c0,0.9,0.2,1.7,0.5,2.3c0.4,0.7,0.9,1.2,1.5,1.7c0.6,0.4,1.3,0.8,2.1,1c0.8,0.2,1.6,0.3,2.5,0.3c1.4,0,2.6-0.3,3.5-0.9
			c0.7-0.4,1.3-0.9,1.8-1.5c0,0.1,0,0.2,0,0.3c0,0.5,0.1,1,0.2,1.4l0.1,0.3h3.4l-0.1-0.4c-0.1-0.4-0.1-0.9-0.2-1.4
			c0-0.5-0.1-1-0.1-1.5v-7.3c0-2.5-0.6-4.4-1.8-5.6c-1.2-1.3-3.1-1.9-5.7-1.9c-1.3,0-2.5,0.2-3.8,0.7c-1.2,0.4-2.3,1.1-3.2,2.1
			L48.2,27l2.3,2.3l0.3-0.2c0.6-0.6,1.4-1,2.2-1.3c0.8-0.3,1.7-0.4,2.6-0.4c1.2,0,2.2,0.3,2.9,0.9c0.7,0.6,1,1.4,1,2.5v0.2H58.6z
			 M59.3,34v0.7c0,0.7-0.1,1.3-0.3,1.9c-0.2,0.6-0.5,1.1-0.9,1.5c-0.4,0.4-0.9,0.8-1.4,1c-0.6,0.3-1.2,0.4-2,0.4
			c-1,0-1.8-0.2-2.5-0.6c-0.6-0.4-0.9-1-0.9-2c0-1,0.5-1.7,1.4-2.2c1-0.5,2.4-0.7,4.2-0.7H59.3z"/>
		<path class="st0" d="M68.6,36.6c0,0.9,0.1,1.7,0.2,2.4c0.1,0.8,0.4,1.4,0.7,1.9c0.4,0.5,0.9,1,1.6,1.2c0.6,0.3,1.5,0.4,2.6,0.4
			c0.5,0,1.1-0.1,1.7-0.2c0.6-0.1,1.2-0.3,1.7-0.5l0.2-0.1l-0.1-3.4l-0.5,0.2c-0.4,0.2-0.7,0.3-1.2,0.4c-1,0.2-2,0.2-2.5-0.1
			c-0.3-0.2-0.5-0.4-0.6-0.7c-0.1-0.3-0.2-0.7-0.3-1.1c0-0.5,0-1,0-1.5v-8.1h5v-3.1h-5v-4.8h-3.5v4.8h-3.7v3.1h3.7V36.6z"/>
		<path class="st0" d="M81.1,39.9c0.8,0.8,1.7,1.5,2.8,2c1.1,0.5,2.4,0.7,3.7,0.7c1.6,0,3.1-0.3,4.3-0.8c1.3-0.5,2.4-1.5,3.5-2.8
			l0.2-0.3L93,36.6l-0.2,0.3c-0.6,0.8-1.4,1.4-2.2,1.8c-0.8,0.4-1.8,0.6-3,0.6c-0.7,0-1.4-0.1-2-0.4c-0.6-0.3-1.1-0.6-1.6-1.1
			c-0.5-0.5-0.8-1-1.1-1.6c-0.2-0.5-0.4-1-0.5-1.6h13.7v-1.3c0-1.4-0.2-2.7-0.6-3.9c-0.4-1.1-1-2.1-1.7-2.9
			c-0.7-0.8-1.6-1.4-2.7-1.8c-1-0.4-2.2-0.6-3.4-0.6c-1.3,0-2.5,0.2-3.6,0.7c-1.1,0.5-2.1,1.1-2.9,1.9c-0.8,0.8-1.4,1.8-1.9,2.9
			c-0.4,1.1-0.7,2.4-0.7,3.7c0,1.3,0.2,2.5,0.6,3.6C79.7,38.1,80.3,39,81.1,39.9z M82.5,31.4c0.2-1.2,0.8-2.1,1.6-2.9
			c0.9-0.8,2.1-1.2,3.6-1.2c1.5,0,2.6,0.4,3.5,1.2c0.8,0.7,1.2,1.7,1.3,2.9H82.5z"/>
		<path class="st0" d="M23.1,77.7c1.7,0.7,3.5,1,5.5,1c2,0,3.9-0.4,5.5-1c1.7-0.7,3.1-1.7,4.4-2.9c1.2-1.2,2.2-2.7,2.9-4.4
			c0.7-1.7,1-3.5,1-5.5c0-2-0.3-3.8-1-5.5c-0.7-1.7-1.6-3.2-2.9-4.4c-1.2-1.2-2.7-2.2-4.4-2.9c-1.7-0.7-3.5-1-5.5-1
			c-2,0-3.9,0.4-5.5,1c-1.7,0.7-3.1,1.7-4.4,2.9c-1.2,1.2-2.2,2.7-2.9,4.4c-0.7,1.7-1,3.5-1,5.5c0,2,0.3,3.8,1,5.5
			c0.7,1.7,1.6,3.2,2.9,4.4C20,76.1,21.4,77,23.1,77.7z M18.8,64.9c0-1.4,0.2-2.8,0.7-4c0.5-1.2,1.2-2.4,2-3.3
			c0.9-0.9,1.9-1.7,3.1-2.2c1.2-0.5,2.5-0.8,4-0.8c1.4,0,2.8,0.3,4,0.8c1.2,0.5,2.2,1.3,3.1,2.2c0.9,0.9,1.5,2,2,3.3
			c0.5,1.2,0.7,2.6,0.7,4c0,1.4-0.2,2.8-0.7,4c-0.5,1.2-1.2,2.3-2,3.3c-0.9,0.9-1.9,1.7-3.1,2.2c-1.2,0.5-2.5,0.8-4,0.8
			c-1.4,0-2.8-0.3-4-0.8c-1.2-0.5-2.2-1.3-3.1-2.2c-0.9-0.9-1.5-2-2-3.3C19.1,67.7,18.8,66.4,18.8,64.9z"/>
		<path class="st0" d="M45.2,60.5v25.9h3.5V75.8c0.5,0.7,1.2,1.2,2.1,1.7c1.2,0.7,2.6,1,4.2,1c1.2,0,2.4-0.2,3.5-0.7
			c1.1-0.5,2-1.1,2.8-1.9c0.8-0.8,1.4-1.8,1.9-2.9c0.4-1.1,0.7-2.4,0.7-3.7c0-1.3-0.2-2.6-0.7-3.7c-0.5-1.1-1.1-2.1-1.9-2.9
			c-0.8-0.8-1.8-1.5-2.9-1.9c-1.1-0.5-2.4-0.7-3.8-0.7c-1.3,0-2.5,0.3-3.5,0.8c-0.8,0.4-1.6,1-2.3,1.6v-2H45.2z M48.7,69.3
			c0-0.8,0.1-1.6,0.4-2.4c0.3-0.7,0.6-1.3,1.1-1.9c0.5-0.5,1.1-1,1.8-1.3c0.7-0.3,1.5-0.5,2.3-0.5c0.9,0,1.7,0.2,2.3,0.5
			c0.7,0.3,1.3,0.7,1.8,1.3c0.5,0.5,0.9,1.2,1.1,1.9c0.3,0.7,0.4,1.5,0.4,2.4c0,0.8-0.1,1.6-0.4,2.4c-0.3,0.7-0.6,1.3-1.1,1.9
			c-0.5,0.5-1.1,1-1.8,1.3c-1.4,0.6-3.3,0.6-4.7,0c-0.7-0.3-1.3-0.7-1.8-1.3c-0.5-0.5-0.9-1.2-1.1-1.9
			C48.9,70.9,48.7,70.1,48.7,69.3z"/>
		<path class="st0" d="M68.3,51.7c-0.7,0-1.3,0.2-1.7,0.7c-0.5,0.5-0.7,1-0.7,1.7c0,0.7,0.2,1.3,0.7,1.7c0.5,0.5,1,0.7,1.7,0.7
			c0.7,0,1.3-0.2,1.7-0.7c0.5-0.5,0.7-1,0.7-1.7c0-0.6-0.2-1.2-0.7-1.7C69.6,52,69,51.7,68.3,51.7z"/>
		<rect x="66.6" y="60.5" class="st0" width="3.5" height="17.7"/>
		<path class="st0" d="M90.8,65.5c-0.5-1.1-1.1-2.1-2-2.9c-0.8-0.8-1.8-1.5-3-1.9c-2.3-0.9-5.2-0.9-7.5,0c-1.2,0.4-2.2,1.1-3,1.9
			c-0.8,0.8-1.5,1.8-2,2.9c-0.5,1.1-0.7,2.4-0.7,3.8c0,1.4,0.2,2.6,0.7,3.8c0.5,1.1,1.1,2.1,2,2.9c0.8,0.8,1.8,1.5,3,1.9
			c1.1,0.4,2.4,0.7,3.8,0.7c1.3,0,2.6-0.2,3.8-0.7c1.2-0.5,2.2-1.1,3-1.9c0.8-0.8,1.5-1.8,2-2.9c0.5-1.1,0.7-2.4,0.7-3.8
			C91.5,67.9,91.3,66.7,90.8,65.5z M87.8,69.3c0,0.8-0.1,1.6-0.4,2.4c-0.3,0.7-0.6,1.3-1.1,1.9c-0.5,0.5-1.1,1-1.8,1.3
			c-1.4,0.6-3.3,0.6-4.7,0c-0.7-0.3-1.3-0.7-1.8-1.3c-0.5-0.5-0.9-1.2-1.1-1.9c-0.3-0.7-0.4-1.5-0.4-2.4c0-0.9,0.1-1.6,0.4-2.4
			c0.3-0.7,0.6-1.3,1.1-1.9c0.5-0.5,1.1-1,1.8-1.3c0.7-0.3,1.5-0.5,2.3-0.5c0.9,0,1.7,0.2,2.3,0.5c0.7,0.3,1.3,0.7,1.8,1.3
			c0.5,0.5,0.9,1.2,1.1,1.9C87.6,67.6,87.8,68.4,87.8,69.3z"/>
		<path class="st0" d="M94,52.5c-0.5,0.5-0.7,1-0.7,1.7c0,0.7,0.2,1.3,0.7,1.7c0.5,0.5,1,0.7,1.7,0.7s1.3-0.2,1.7-0.7
			c0.5-0.5,0.7-1,0.7-1.7c0-0.6-0.2-1.2-0.7-1.7c-0.5-0.5-1-0.7-1.7-0.7C95,51.7,94.4,52,94,52.5z"/>
		<rect x="93.9" y="60.5" class="st0" width="3.5" height="17.7"/>
		<path class="st0" d="M102.6,75.9c0.8,0.8,1.7,1.5,2.8,1.9c1.1,0.5,2.2,0.7,3.5,0.7c1.6,0,3-0.4,4.2-1c0.8-0.5,1.5-1.1,2.1-1.7v2.3
			h3.5V50h-3.5v12.4c-0.7-0.7-1.4-1.2-2.3-1.6c-1.1-0.5-2.3-0.8-3.5-0.8c-1.4,0-2.6,0.2-3.8,0.7c-1.1,0.5-2.1,1.1-2.9,1.9
			c-0.8,0.8-1.4,1.8-1.9,2.9c-0.5,1.1-0.7,2.4-0.7,3.7c0,1.3,0.2,2.6,0.7,3.7C101.2,74.1,101.8,75.1,102.6,75.9z M103.8,69.3
			c0-0.8,0.1-1.6,0.4-2.4c0.3-0.7,0.6-1.3,1.1-1.9c0.5-0.5,1.1-1,1.8-1.3c0.7-0.3,1.5-0.5,2.3-0.5c0.9,0,1.7,0.2,2.3,0.5
			c0.7,0.3,1.3,0.7,1.8,1.3c0.5,0.5,0.9,1.2,1.1,1.9c0.3,0.7,0.4,1.5,0.4,2.4c0,0.8-0.1,1.6-0.4,2.4c-0.3,0.7-0.6,1.3-1.1,1.9
			c-0.5,0.5-1.1,1-1.8,1.3c-1.4,0.6-3.3,0.6-4.7,0c-0.7-0.3-1.3-0.7-1.8-1.3c-0.5-0.5-0.9-1.2-1.1-1.9
			C103.9,70.9,103.8,70.1,103.8,69.3z"/>
		<path class="st0" d="M32,99.9c1.2-1.2,1.8-2.8,1.8-4.8c0-1.7-0.3-3-1-4c-0.6-1-1.5-1.7-2.5-2.2c-1-0.5-2.1-0.8-3.4-1
			c-1.2-0.1-2.5-0.2-3.7-0.2h-6.9v26.4h3.7v-11.5h3.4l7,11.5H35l-7.3-11.9C29.5,101.8,30.9,101.1,32,99.9z M29.9,95.1
			c0,1-0.2,1.7-0.7,2.2c-0.5,0.5-1,0.9-1.7,1.2c-0.7,0.3-1.5,0.4-2.4,0.5c-0.9,0-1.8,0.1-2.6,0.1h-2.4v-7.8H24c0.7,0,1.5,0,2.2,0.1
			c0.7,0.1,1.3,0.3,1.9,0.6c0.5,0.3,1,0.7,1.3,1.2C29.7,93.6,29.9,94.3,29.9,95.1z"/>
		<path class="st0" d="M50.5,98.4c-0.7-0.8-1.6-1.4-2.7-1.8c-1-0.4-2.2-0.6-3.4-0.6c-1.3,0-2.5,0.2-3.6,0.7
			c-1.1,0.5-2.1,1.1-2.9,1.9c-0.8,0.8-1.4,1.8-1.9,2.9c-0.5,1.1-0.7,2.4-0.7,3.7c0,1.3,0.2,2.5,0.6,3.6c0.4,1.1,1,2.1,1.8,2.9
			c0.8,0.8,1.7,1.5,2.8,2c1.1,0.5,2.4,0.7,3.7,0.7c1.6,0,3.1-0.3,4.3-0.8c1.3-0.5,2.4-1.5,3.5-2.8l0.2-0.3l-2.7-2.1l-0.2,0.3
			c-0.6,0.8-1.4,1.4-2.2,1.8c-0.8,0.4-1.8,0.6-3,0.6c-0.7,0-1.4-0.1-2-0.4c-0.6-0.3-1.1-0.6-1.6-1.1c-0.5-0.5-0.8-1-1.1-1.6
			c-0.2-0.5-0.4-1-0.5-1.6h13.7v-1.3c0-1.4-0.2-2.7-0.6-3.9C51.8,100.2,51.2,99.2,50.5,98.4z M49,103.4h-9.9
			c0.2-1.2,0.8-2.1,1.6-2.9c0.9-0.8,2.1-1.2,3.6-1.2c1.5,0,2.6,0.4,3.5,1.2C48.5,101.2,48.9,102.2,49,103.4z"/>
		<path class="st0" d="M66.7,105c-0.5-0.4-1.2-0.7-1.9-1c-0.7-0.2-1.4-0.4-2.2-0.6c-0.5-0.1-1.1-0.2-1.6-0.4
			c-0.5-0.1-0.9-0.3-1.3-0.5c-0.4-0.2-0.6-0.4-0.8-0.6c-0.2-0.2-0.3-0.4-0.3-0.7c0-0.3,0.1-0.6,0.2-0.8c0.2-0.3,0.4-0.5,0.7-0.6
			c0.3-0.2,0.6-0.3,1-0.4c1.2-0.3,2.3-0.1,3.1,0.4c0.5,0.3,1,0.8,1.3,1.4l0.2,0.3l2.9-1.9l-0.1-0.3c-0.6-1.1-1.5-2-2.6-2.5
			c-1.8-0.8-4-1-5.9-0.4c-0.8,0.2-1.5,0.6-2.1,1c-0.6,0.4-1.2,1-1.6,1.7c-0.4,0.7-0.6,1.5-0.6,2.4c0,0.9,0.2,1.7,0.5,2.3
			c0.4,0.6,0.8,1.1,1.4,1.5c0.6,0.4,1.2,0.7,2,0.9c0.7,0.2,1.5,0.4,2.3,0.6c0.5,0.1,0.9,0.2,1.3,0.3c0.4,0.1,0.8,0.3,1.1,0.5
			c0.3,0.2,0.5,0.4,0.7,0.6c0.2,0.2,0.2,0.5,0.2,0.9c0,0.4-0.1,0.7-0.3,1c-0.2,0.3-0.4,0.5-0.8,0.7c-0.3,0.2-0.7,0.3-1.1,0.4
			c-0.4,0.1-0.8,0.1-1.2,0.1c-0.9,0-1.7-0.2-2.3-0.6c-0.6-0.4-1.2-0.9-1.7-1.6l-0.2-0.3l-2.8,2.2l0.2,0.3c0.9,1.3,1.9,2.1,3,2.6
			c1.1,0.5,2.4,0.7,3.9,0.7c0.9,0,1.7-0.1,2.6-0.3c0.8-0.2,1.6-0.5,2.3-1c0.7-0.4,1.2-1,1.7-1.8c0.4-0.7,0.6-1.6,0.6-2.6
			c0-0.9-0.2-1.7-0.5-2.3C67.7,105.9,67.2,105.4,66.7,105z"/>
		<path class="st0" d="M86.9,98.6c-0.8-0.8-1.8-1.5-2.9-1.9c-1.1-0.5-2.4-0.7-3.8-0.7c-1.3,0-2.5,0.3-3.5,0.8
			c-0.8,0.4-1.6,1-2.3,1.6v-2h-3.5v25.9h3.5v-10.6c0.5,0.7,1.2,1.2,2.1,1.7c1.2,0.7,2.6,1,4.2,1c1.2,0,2.4-0.2,3.5-0.7
			c1.1-0.5,2-1.1,2.8-1.9c0.8-0.8,1.4-1.8,1.9-2.9c0.5-1.1,0.7-2.4,0.7-3.7c0-1.3-0.2-2.6-0.7-3.7C88.3,100.4,87.7,99.5,86.9,98.6z
			 M85.7,105.3c0,0.8-0.1,1.6-0.4,2.4c-0.3,0.7-0.6,1.3-1.1,1.9c-0.5,0.5-1.1,1-1.8,1.3c-1.4,0.6-3.3,0.6-4.7,0
			c-0.7-0.3-1.3-0.7-1.8-1.3c-0.5-0.5-0.9-1.2-1.1-1.9c-0.3-0.7-0.4-1.5-0.4-2.4c0-0.8,0.1-1.6,0.4-2.4c0.3-0.7,0.6-1.3,1.1-1.9
			c0.5-0.5,1.1-1,1.8-1.3c0.7-0.3,1.5-0.5,2.3-0.5c0.9,0,1.7,0.2,2.3,0.5c0.7,0.3,1.3,0.7,1.8,1.3c0.5,0.5,0.9,1.2,1.1,1.9
			C85.6,103.6,85.7,104.4,85.7,105.3z"/>
		<path class="st0" d="M107.6,98.6c-0.8-0.8-1.8-1.5-3-1.9c-2.3-0.9-5.2-0.9-7.5,0c-1.2,0.5-2.2,1.1-3,1.9c-0.8,0.8-1.5,1.8-2,2.9
			c-0.5,1.1-0.7,2.4-0.7,3.8c0,1.4,0.2,2.6,0.7,3.8c0.5,1.1,1.1,2.1,2,2.9c0.8,0.8,1.8,1.5,3,1.9c1.1,0.5,2.4,0.7,3.8,0.7
			s2.6-0.2,3.8-0.7c1.1-0.4,2.2-1.1,3-1.9c0.8-0.8,1.5-1.8,2-2.9c0.5-1.1,0.7-2.4,0.7-3.8c0-1.4-0.2-2.6-0.7-3.8
			C109.1,100.4,108.4,99.4,107.6,98.6z M106.5,105.3c0,0.8-0.1,1.6-0.4,2.4c-0.3,0.7-0.6,1.3-1.1,1.9s-1.1,1-1.8,1.3
			c-1.4,0.6-3.3,0.6-4.7,0c-0.7-0.3-1.3-0.7-1.8-1.3c-0.5-0.5-0.9-1.2-1.1-1.9c-0.3-0.7-0.4-1.5-0.4-2.4c0-0.8,0.1-1.6,0.4-2.4
			c0.3-0.7,0.6-1.3,1.1-1.9c0.5-0.5,1.1-1,1.8-1.3c0.7-0.3,1.5-0.5,2.3-0.5c0.9,0,1.7,0.2,2.3,0.5c0.7,0.3,1.3,0.7,1.8,1.3
			c0.5,0.5,0.9,1.2,1.1,1.9C106.4,103.6,106.5,104.4,106.5,105.3z"/>
		<path class="st0" d="M126.6,98c-0.6-0.6-1.3-1.1-2.1-1.5c-0.9-0.4-1.9-0.5-3-0.5c-0.7,0-1.4,0.1-2.1,0.3c-0.6,0.2-1.2,0.4-1.7,0.8
			c-0.5,0.3-1,0.7-1.3,1.1c-0.1,0.1-0.2,0.2-0.3,0.4c0-0.1,0-0.2,0-0.4c0-0.5,0-0.9,0-1.4v-0.4h-3.4v0.4c0,0.6,0,1.2,0.1,1.9
			c0,0.7,0.1,1.4,0.1,2.2v13.3h3.5v-8.6c0-0.9,0.1-1.8,0.3-2.6c0.2-0.8,0.5-1.4,0.9-1.9c0.4-0.5,0.9-0.9,1.5-1.2
			c0.6-0.3,1.4-0.4,2.2-0.4c1.2,0,2.1,0.4,2.7,1.1c0.6,0.8,0.9,1.8,0.9,3.2v10.5h3.5v-10.8c0-1-0.1-2-0.4-2.9
			C127.6,99.4,127.1,98.7,126.6,98z"/>
		<path class="st0" d="M142.9,105c-0.5-0.4-1.2-0.7-1.9-1c-0.7-0.2-1.4-0.4-2.2-0.6c-0.5-0.1-1.1-0.2-1.6-0.4
			c-0.5-0.1-0.9-0.3-1.3-0.5c-0.4-0.2-0.6-0.4-0.8-0.6c-0.2-0.2-0.3-0.4-0.3-0.7c0-0.3,0.1-0.6,0.2-0.8c0.2-0.3,0.4-0.5,0.7-0.6
			c0.3-0.2,0.6-0.3,1-0.4c1.2-0.3,2.3-0.1,3.1,0.4c0.5,0.3,1,0.8,1.3,1.4l0.2,0.3l2.9-1.9l-0.1-0.3c-0.6-1.1-1.5-2-2.6-2.5
			c-1.8-0.8-4-1-5.9-0.4c-0.8,0.2-1.5,0.6-2.1,1c-0.6,0.4-1.2,1-1.6,1.7c-0.4,0.7-0.6,1.5-0.6,2.4c0,0.9,0.2,1.7,0.5,2.3
			c0.4,0.6,0.8,1.1,1.4,1.5c0.6,0.4,1.2,0.7,2,0.9c0.7,0.2,1.5,0.4,2.3,0.6c0.5,0.1,0.9,0.2,1.3,0.3c0.4,0.1,0.8,0.3,1.1,0.5
			c0.3,0.2,0.5,0.4,0.7,0.6c0.2,0.2,0.2,0.5,0.2,0.9c0,0.4-0.1,0.7-0.3,1c-0.2,0.3-0.4,0.5-0.8,0.7c-0.3,0.2-0.7,0.3-1.1,0.4
			c-0.4,0.1-0.8,0.1-1.2,0.1c-0.9,0-1.7-0.2-2.3-0.6c-0.6-0.4-1.2-0.9-1.7-1.6l-0.2-0.3l-2.8,2.2l0.2,0.3c0.9,1.3,1.9,2.1,3,2.6
			c1.1,0.5,2.4,0.7,3.9,0.7c0.9,0,1.7-0.1,2.6-0.3c0.8-0.2,1.6-0.5,2.3-1c0.7-0.4,1.2-1,1.7-1.8c0.4-0.7,0.6-1.6,0.6-2.6
			c0-0.9-0.2-1.7-0.5-2.3C143.9,105.9,143.5,105.4,142.9,105z"/>
		<path class="st0" d="M164,105.2c0-1.4-0.2-2.7-0.6-3.9c-0.4-1.1-1-2.1-1.7-2.9c-0.7-0.8-1.6-1.4-2.7-1.8c-1-0.4-2.2-0.6-3.4-0.6
			c-1.3,0-2.5,0.2-3.6,0.7c-1.1,0.5-2.1,1.1-2.9,1.9c-0.8,0.8-1.4,1.8-1.9,2.9c-0.4,1.1-0.7,2.4-0.7,3.7c0,1.3,0.2,2.5,0.6,3.6
			c0.4,1.1,1,2.1,1.8,2.9c0.8,0.8,1.7,1.5,2.8,2s2.4,0.7,3.7,0.7c1.6,0,3.1-0.3,4.3-0.8c1.3-0.5,2.4-1.5,3.5-2.8l0.2-0.3l-2.7-2.1
			l-0.2,0.3c-0.6,0.8-1.4,1.4-2.2,1.8c-0.8,0.4-1.8,0.6-3,0.6c-0.7,0-1.4-0.1-2-0.4c-0.6-0.3-1.1-0.6-1.6-1.1
			c-0.5-0.5-0.8-1-1.1-1.6c-0.2-0.5-0.4-1-0.5-1.6H164V105.2z M160.2,103.4h-9.9c0.2-1.2,0.8-2.1,1.6-2.9c0.9-0.8,2.1-1.2,3.6-1.2
			c1.5,0,2.6,0.4,3.5,1.2C159.7,101.2,160.1,102.2,160.2,103.4z"/>
	</g>
	<rect x="15.8" y="130.2" class="st0" width="221.4" height="25.6"/>
	<g>
		<path class="st1" d="M33.7,147.4v-3h-3.2v-2.3h5.7v6.5c0,0-1.8,1.8-5.3,1.8c-4.2,0-7.5-3.2-7.5-7.4c0-4.2,3.2-7.4,7.4-7.4
			c3.5,0,5.3,2.1,5.3,2.1l-1.7,1.6c0,0-1.2-1.5-3.6-1.5c-2.9,0-4.9,2.3-4.9,5.1c0,2.8,2.1,5.1,5,5.1
			C32.9,148.1,33.7,147.4,33.7,147.4z"/>
		<path class="st1" d="M40.8,141.6h5.7v2.3h-5.7v3.8h6.3v2.3h-8.8v-14.3H47v2.3h-6.2V141.6z"/>
		<path class="st1" d="M62.7,143c0,4.2-3.1,7.4-7.2,7.4s-7.2-3.2-7.2-7.4c0-4.2,3.1-7.4,7.2-7.4S62.7,138.7,62.7,143z M60.2,143
			c0-2.8-1.9-5.1-4.7-5.1c-2.9,0-4.7,2.3-4.7,5.1c0,2.8,1.9,5.1,4.7,5.1C58.3,148,60.2,145.7,60.2,143z"/>
		<path class="st1" d="M64.5,135.8h4.7c2.8,0,4.7,1.8,4.7,4.5c0,2.1-1.1,3.8-3.2,4.3l3.6,5.6h-2.9l-3.4-5.4h-1.1v5.4h-2.5V135.8z
			 M71.4,140.3c0-1.4-1-2.1-2.6-2.1h-1.9v4.2h1.9C70.4,142.4,71.4,141.7,71.4,140.3z"/>
		<path class="st1" d="M85.5,147.4v-3h-3.2v-2.3H88v6.5c0,0-1.8,1.8-5.3,1.8c-4.2,0-7.5-3.2-7.5-7.4c0-4.2,3.2-7.4,7.4-7.4
			c3.5,0,5.3,2.1,5.3,2.1l-1.7,1.6c0,0-1.2-1.5-3.6-1.5c-2.9,0-4.9,2.3-4.9,5.1c0,2.8,2.1,5.1,5,5.1
			C84.7,148.1,85.5,147.4,85.5,147.4z"/>
		<path class="st1" d="M90.4,135.8h2.5v14.3h-2.5V135.8z"/>
		<path class="st1" d="M99.9,135.8h2.5l5.6,14.3h-2.5l-1.3-3.4h-6l-1.3,3.4h-2.5L99.9,135.8z M99,144.5h4.3l-2.1-5.6L99,144.5z"/>
		<path class="st1" d="M114.8,135.8h4.9c2.8,0,4.7,2,4.7,4.6s-1.9,4.6-4.7,4.6h-2.4v5.1h-2.5V135.8z M121.9,140.4
			c0-1.3-0.9-2.2-2.6-2.2h-2.1v4.5h2.1C121,142.6,121.9,141.7,121.9,140.4z"/>
		<path class="st1" d="M125.9,135.8h4.7c2.8,0,4.7,1.8,4.7,4.5c0,2.1-1.1,3.8-3.2,4.3l3.6,5.6h-2.9l-3.4-5.4h-1.1v5.4h-2.5V135.8z
			 M132.9,140.3c0-1.4-1-2.1-2.6-2.1h-1.9v4.2h1.9C131.9,142.4,132.9,141.7,132.9,140.3z"/>
		<path class="st1" d="M139.9,141.6h5.7v2.3h-5.7v3.8h6.3v2.3h-8.8v-14.3h8.7v2.3h-6.2V141.6z"/>
		<path class="st1" d="M153.1,150.6l-6.4-14.8h2.7l3.8,9.2l3.8-9.2h2.6L153.1,150.6z"/>
		<path class="st1" d="M163,141.6h5.7v2.3H163v3.8h6.3v2.3h-8.8v-14.3h8.7v2.3H163V141.6z"/>
		<path class="st1" d="M173.5,135.8l7.1,9.8v-9.8h2.5v14.3h-2.2l-7.1-9.8v9.8h-2.5v-14.3H173.5z"/>
		<path class="st1" d="M188.4,138.2h-3.9v-2.3h10.3v2.3h-3.9v12h-2.4V138.2z"/>
		<path class="st1" d="M196.5,135.8h2.5v14.3h-2.5V135.8z"/>
		<path class="st1" d="M215.5,143c0,4.2-3.1,7.4-7.2,7.4s-7.2-3.2-7.2-7.4c0-4.2,3.1-7.4,7.2-7.4S215.5,138.7,215.5,143z M213,143
			c0-2.8-1.9-5.1-4.7-5.1c-2.9,0-4.7,2.3-4.7,5.1c0,2.8,1.9,5.1,4.7,5.1C211.1,148,213,145.7,213,143z"/>
		<path class="st1" d="M219.5,135.8l7.1,9.8v-9.8h2.5v14.3h-2.2l-7.1-9.8v9.8h-2.5v-14.3H219.5z"/>
	</g>
	<g>
		<path class="st0" d="M211.3,55.6c-6.2,5.7-6.1,13.3-4.3,20.8c0.3,1.2,0.7,2.3,1.1,3.5c-0.2-0.7-1.4-12.8,7.4-19
			c5.9-4.2,13.8-6.1,21-5.6l-1.7-7.4c-0.7-0.1-1.5-0.1-2.2-0.1C224.9,47.7,216.9,50.4,211.3,55.6"/>
		<path class="st2" d="M197.3,52c-1.5-2.3-1.7-5.2-0.1-7.6c1.7-2.4,5.7-3.6,7.8-1.1C209.4,48.5,202,57.4,197.3,52L197.3,52z
			 M208.5,43.5c-2.8-3.6-8.2-6.1-12.5-3.9c-4.7,2.4-4.9,8.3-2.1,12.2c0,0,0,0,0,0c0.1,0.1,0.2,0.2,0.3,0.4c3,3.6,8.6,6.1,12.9,3.4
			C211.4,53,211.3,47.2,208.5,43.5L208.5,43.5z"/>
		<path class="st2" d="M179.9,12.5c0.1,0.2,3.9,7.8-2.3,15.1c-3.3,4-8.1,7.2-11.9,11c-2.7,2.7-5.1,5.5-5.1,8.7v0
			c0,0.6,0.1,1.3,0.3,2c0.2,0.8,0.4,1.3,0.9,2.4c0.2,0.5,0.8,1.4,0.8,1.4c0,0,0-0.1,0-0.1c0-0.3,0.1-0.7,0.2-1.3
			c0.1-0.4,0.2-0.9,0.3-1.3c0,0,0,0,0,0c0.3-0.9,0.7-2,1.5-3c1.6-2.1,3.6-4,5.7-5.9c3.9-3.4,9.5-7.2,11.3-11.5
			C186.8,18.1,179.9,12.6,179.9,12.5L179.9,12.5z"/>
		<path class="st2" d="M203,72.2c-0.4-1.5-1.1-3.3-1.8-5c-0.1-0.3-0.3-0.7-0.4-0.9c-0.1-0.1-0.1-0.2-0.1-0.2c0.3,1,0.5,1.9,0.5,2.9
			c0.3,4.8-2.2,9.2-4.9,12.5c-6.5,8.2-16.3,15.3-26.6,21.2l2.2,5.1c8-4.5,15.5-9.7,21.5-15.6C199.3,86.3,204.8,79.2,203,72.2
			L203,72.2z"/>
		<path class="st0" d="M200.6,66.1c0-0.1-0.8-1.3-1.4-2c-3.1-3.6-8-6.2-13.3-8.1c-4.7-1.7-9.3-2.7-14.6-3.5
			c-2.9-0.4-5.9-0.9-8.2-2.1c0,0,0,0,0,0c-0.1,0.5-0.3,0.9-0.3,1.3c-0.1,0.6-0.1,1.1-0.2,1.3c0,0,0,0.1,0,0.1c0,0,0.4,0.5,0.6,0.8
			c1.5,1.7,4,2.6,6.6,3.1c3,0.6,6.3,0.8,9.3,1.4c3.4,0.7,6.8,1.8,9.8,3c3.7,1.5,7.3,3.2,10.1,5.5c0.6,0.5,1.4,1.4,2.1,2.1
			C201.1,68.1,200.9,67.1,200.6,66.1L200.6,66.1z"/>
		<path class="st2" d="M208.2,79.9c0,0,1.9,19.9-4.8,36l5.9,0C213.5,91.1,208.2,79.9,208.2,79.9L208.2,79.9z"/>
	</g>
</g>
</svg>
