<?xml version="1.0" encoding="utf-8"?>
<!-- Generator: Adobe Illustrator 25.2.1, SVG Export Plug-In . SVG Version: 6.00 Build 0)  -->
<svg version="1.1" id="Layer_1" xmlns="http://www.w3.org/2000/svg" xmlns:xlink="http://www.w3.org/1999/xlink" x="0px" y="0px"
	 viewBox="0 0 612 792" style="enable-background:new 0 0 612 792;" xml:space="preserve">
<style type="text/css">
	.st0{fill:#3E4C54;}
	.st1{fill:#FFFFFF;}
	.st2{fill:#F7A042;}
	.st3{fill:#F7DA64;}
	.st4{fill:#63B563;}
	.st5{fill:#4692C2;}
	.st6{fill:#8865AB;}
	.st7{fill:#617178;}
	.st8{fill:#DD514E;}
	.st9{fill:#48BBCD;}
</style>
<g>
	<path class="st0" d="M55.04,558.57h20.28c0,7.78,3.89,11.11,10.14,11.11c6.53,0,9.72-3.75,9.72-8.61
		c0-16.11-38.06-18.06-38.06-47.64c0-14.86,10.42-25.7,28.34-25.7s28.75,10.69,28.75,28.61H93.94c0-6.39-2.92-9.59-8.61-9.59
		c-5.14,0-8.19,2.78-8.19,7.22c0,15.28,38.61,16.25,38.61,47.22c0,15.97-11.25,27.64-30.56,27.64
		C66.71,588.85,55.04,578.15,55.04,558.57"/>
	<path class="st0" d="M129.77,555.38V521.2c0-20.83,11.8-33.2,31.53-33.2c19.73,0,31.53,12.36,31.53,33.2v34.17
		c0,20.83-11.8,33.2-31.53,33.2C141.57,588.57,129.77,576.21,129.77,555.38 M172.41,555.38V521.2c0-9.17-3.75-14.03-11.11-14.03
		c-7.36,0-11.11,4.86-11.11,14.03v34.17c0,9.17,3.75,14.03,11.11,14.03C168.66,569.4,172.41,564.54,172.41,555.38"/>
	<path class="st0" d="M207.02,555.65v-65.98h20.56v65.98c0,8.89,3.47,13.75,10.42,13.75c6.94,0,10.42-4.86,10.42-13.75v-65.98h20.56
		v65.98c0,20.56-11.53,32.92-30.97,32.92C218.54,588.57,207.02,576.21,207.02,555.65"/>
	<path class="st0" d="M310.91,554.26h-6.95v32.64h-19.72v-97.23h28.2c19.31,0,30.7,11.95,30.7,32.36c0,13.2-4.86,22.92-13.47,28.06
		L348,586.91h-21.53L310.91,554.26z M303.96,535.51h8.2c6.95,0,10.69-4.72,10.69-13.47c0-8.89-3.75-13.61-10.69-13.61h-8.2V535.51z"
		/>
	<path class="st0" d="M358.54,557.18V519.4c0-20.56,11.11-31.67,30.14-31.67c19.44,0,30.28,11.11,30.97,31.67h-19.72
		c-0.56-8.89-3.89-12.5-11.39-12.5c-5.97,0-9.45,3.89-9.45,12.5v37.78c0,8.33,3.33,12.22,9.45,12.22c7.64,0,11.11-3.61,11.67-12.22
		h19.72c-0.42,20.42-11.67,31.39-31.39,31.39C369.66,588.57,358.54,577.6,358.54,557.18"/>
	<polygon class="st0" points="484.68,568.15 484.68,586.91 433.14,586.91 433.14,489.67 483.28,489.67 483.28,508.43 452.86,508.43 
		452.86,528.57 480.51,528.57 480.51,546.62 452.86,546.62 452.86,568.15 	"/>
	<path class="st0" d="M495.82,558.57h20.28c0,7.78,3.89,11.11,10.14,11.11c6.53,0,9.73-3.75,9.73-8.61
		c0-16.11-38.06-18.06-38.06-47.64c0-14.86,10.42-25.7,28.33-25.7c17.92,0,28.75,10.69,28.75,28.61h-20.28
		c0-6.39-2.92-9.59-8.61-9.59c-5.14,0-8.19,2.78-8.19,7.22c0,15.28,38.61,16.25,38.61,47.22c0,15.97-11.25,27.64-30.56,27.64
		C507.49,588.85,495.82,578.15,495.82,558.57"/>
	<path class="st0" d="M75.3,624.49c0-10.74,8.1-18.26,18.89-18.26c10.79,0,18.84,7.51,18.84,18.26c0,10.74-8.04,18.26-18.84,18.26
		C83.39,642.74,75.3,635.23,75.3,624.49 M103.76,624.49c0-5.77-3.76-10.21-9.58-10.21c-5.87,0-9.63,4.45-9.63,10.21
		c0,5.71,3.76,10.21,9.63,10.21C100.01,634.7,103.76,630.2,103.76,624.49"/>
	<polygon class="st0" points="127.87,642.11 127.87,606.81 153.75,606.81 153.75,614.75 136.98,614.75 136.98,620.25 153.38,620.25 
		153.38,628.19 136.98,628.19 136.98,642.11 	"/>
	<path class="st0" d="M190.84,637.13l4.81-6.83c2.54,2.54,6.46,4.66,11.27,4.66c3.12,0,5.03-1.22,5.03-2.91
		c0-1.85-2.65-2.43-6.03-3.12c-5.82-1.16-13.97-2.75-13.97-11.43c0-5.93,5.03-11.22,14.08-11.22c5.66,0,10.58,1.7,14.34,4.92
		l-4.97,6.51c-2.96-2.43-6.83-3.65-10.32-3.65c-2.65,0-3.81,1.06-3.81,2.54c0,1.69,2.7,2.27,6.09,3.07
		c5.82,1.22,13.86,2.96,13.86,11.27c0,7.09-5.24,11.8-14.71,11.8C199.36,642.74,194.38,640.52,190.84,637.13"/>
	<polygon class="st0" points="244.81,642.11 244.81,614.75 234.91,614.75 234.91,606.81 263.75,606.81 263.75,614.75 253.91,614.75 
		253.91,642.11 	"/>
	<path class="st0" d="M297.05,642.11l-5.93-11.85h-4.66v11.85h-9.1v-35.3h17.67c7.83,0,12.28,5.19,12.28,11.75
		c0,6.14-3.76,9.42-7.04,10.58l7.2,12.97H297.05z M298.06,618.51c0-2.38-2.01-3.76-4.39-3.76h-7.2v7.57h7.2
		C296.05,622.32,298.06,621,298.06,618.51"/>
	<polygon class="st0" points="322.53,642.11 322.53,606.81 348.4,606.81 348.4,614.75 331.63,614.75 331.63,620.25 348.03,620.25 
		348.03,628.19 331.63,628.19 331.63,634.17 348.4,634.17 348.4,642.11 	"/>
	<polygon class="st0" points="388.55,642.11 373.63,621.68 373.63,642.11 364.53,642.11 364.53,606.81 373.9,606.81 388.19,626.23 
		388.19,606.81 397.34,606.81 397.34,642.11 	"/>
	<path class="st0" d="M412.14,624.49c0-11.22,8.57-18.26,19.1-18.26c7.89,0,12.65,4.18,15.08,8.57l-7.62,3.97
		c-1.32-2.33-4.02-4.5-7.46-4.5c-5.77,0-9.84,4.45-9.84,10.21c0,5.77,4.07,10.21,9.84,10.21c2.59,0,5.24-1.06,6.51-2.12v-2.75h-7.94
		v-7.99h17.04v14.02c-3.81,4.18-8.94,6.88-15.61,6.88C420.71,642.74,412.14,635.71,412.14,624.49"/>
	<polygon class="st0" points="469.6,642.11 469.6,614.75 459.71,614.75 459.71,606.81 488.55,606.81 488.55,614.75 478.71,614.75 
		478.71,642.11 	"/>
	<polygon class="st0" points="525.92,642.11 525.92,627.93 511.26,627.93 511.26,642.11 502.16,642.11 502.16,606.81 511.26,606.81 
		511.26,619.99 525.92,619.99 525.92,606.81 535.02,606.81 535.02,642.11 	"/>
	<path class="st1" d="M458.74,303.14c0,84.47-68.48,152.95-152.95,152.95c-84.47,0-152.95-68.48-152.95-152.95
		s68.48-152.95,152.95-152.95C390.26,150.19,458.74,218.67,458.74,303.14"/>
	<path class="st2" d="M311.66,162.06v126.88l89.72-89.72C376.69,176.46,345.22,163.43,311.66,162.06"/>
	<path class="st3" d="M409.7,207.54l-89.72,89.72h126.88C445.49,263.7,432.46,232.23,409.7,207.54"/>
	<path class="st4" d="M446.86,309.02H319.97l89.72,89.72C432.46,374.05,445.5,342.57,446.86,309.02"/>
	<path class="st5" d="M311.66,444.21c33.56-1.36,65.03-14.4,89.72-37.16l-89.72-89.72V444.21z"/>
	<path class="st6" d="M291.59,309.02H164.71c1.36,33.56,14.4,65.03,37.16,89.72L291.59,309.02z"/>
	<path class="st7" d="M299.9,444.21V317.33l-89.72,89.72C234.88,429.81,266.35,442.85,299.9,444.21"/>
	<path class="st8" d="M299.9,288.95V162.06c-33.56,1.36-65.03,14.4-89.72,37.16L299.9,288.95z"/>
	<path class="st9" d="M201.87,207.54c-22.76,24.69-35.8,56.17-37.16,89.72h126.88L201.87,207.54z"/>
</g>
</svg>
