<?xml version="1.0" encoding="utf-8"?>
<!-- Generator: Adobe Illustrator 25.2.1, SVG Export Plug-In . SVG Version: 6.00 Build 0)  -->
<svg version="1.1" id="Layer_1" xmlns="http://www.w3.org/2000/svg" xmlns:xlink="http://www.w3.org/1999/xlink" x="0px" y="0px"
	 viewBox="0 0 612 792" style="enable-background:new 0 0 612 792;" xml:space="preserve">
<style type="text/css">
	.st0{fill:#3E4C54;}
	.st1{fill:#FFFFFF;}
	.st2{fill:#F7A042;}
	.st3{fill:#F7DA64;}
	.st4{fill:#63B563;}
	.st5{fill:#4692C2;}
	.st6{fill:#8865AB;}
	.st7{fill:#617178;}
	.st8{fill:#DD514E;}
	.st9{fill:#48BBCD;}
</style>
<g>
	<path class="st0" d="M215.67,391.86h14.42c0,5.53,2.77,7.9,7.21,7.9c4.65,0,6.92-2.66,6.92-6.12c0-11.46-27.08-12.85-27.08-33.89
		c0-10.57,7.41-18.28,20.16-18.28s20.45,7.61,20.45,20.36h-14.42c0-4.54-2.07-6.82-6.13-6.82c-3.65,0-5.83,1.98-5.83,5.14
		c0,10.87,27.47,11.56,27.47,33.59c0,11.36-8,19.66-21.74,19.66C223.97,413.4,215.67,405.79,215.67,391.86"/>
	<path class="st0" d="M268.82,389.58v-24.31c0-14.82,8.4-23.62,22.43-23.62c14.03,0,22.43,8.8,22.43,23.62v24.31
		c0,14.82-8.4,23.62-22.43,23.62C277.22,413.2,268.82,404.41,268.82,389.58 M299.16,389.58v-24.31c0-6.52-2.66-9.98-7.91-9.98
		c-5.23,0-7.9,3.46-7.9,9.98v24.31c0,6.52,2.67,9.98,7.9,9.98C296.49,399.56,299.16,396.11,299.16,389.58"/>
	<path class="st0" d="M323.78,389.78v-46.93h14.62v46.93c0,6.32,2.47,9.78,7.41,9.78c4.94,0,7.41-3.46,7.41-9.78v-46.93h14.63v46.93
		c0,14.62-8.2,23.42-22.04,23.42C331.98,413.2,323.78,404.41,323.78,389.78"/>
	<path class="st0" d="M397.68,388.79h-4.94v23.22h-14.03v-69.16h20.05c13.74,0,21.84,8.5,21.84,23.02c0,9.39-3.46,16.3-9.58,19.96
		l13.04,26.18h-15.32L397.68,388.79z M392.74,375.46h5.83c4.94,0,7.61-3.36,7.61-9.58c0-6.32-2.67-9.68-7.61-9.68h-5.83V375.46z"/>
	<path class="st0" d="M431.57,390.87v-26.88c0-14.62,7.91-22.53,21.44-22.53c13.83,0,21.54,7.91,22.03,22.53h-14.03
		c-0.39-6.32-2.77-8.89-8.1-8.89c-4.25,0-6.72,2.77-6.72,8.89v26.88c0,5.93,2.37,8.7,6.72,8.7c5.44,0,7.91-2.57,8.3-8.7h14.03
		c-0.3,14.53-8.3,22.33-22.33,22.33C439.47,413.2,431.57,405.39,431.57,390.87"/>
	<polygon class="st0" points="521.29,398.67 521.29,412.01 484.63,412.01 484.63,342.85 520.3,342.85 520.3,356.19 498.66,356.19 
		498.66,370.51 518.32,370.51 518.32,383.36 498.66,383.36 498.66,398.67 	"/>
	<path class="st0" d="M529.22,391.86h14.42c0,5.53,2.77,7.9,7.22,7.9c4.64,0,6.92-2.66,6.92-6.12c0-11.46-27.07-12.85-27.07-33.89
		c0-10.57,7.41-18.28,20.16-18.28c12.74,0,20.45,7.61,20.45,20.36h-14.43c0-4.54-2.07-6.82-6.13-6.82c-3.66,0-5.83,1.98-5.83,5.14
		c0,10.87,27.46,11.56,27.46,33.59c0,11.36-8,19.66-21.74,19.66C537.52,413.4,529.22,405.79,529.22,391.86"/>
	<path class="st0" d="M230.08,438.75c0-7.64,5.76-12.99,13.44-12.99c7.68,0,13.4,5.34,13.4,12.99c0,7.64-5.72,12.99-13.4,12.99
		C235.83,451.73,230.08,446.39,230.08,438.75 M250.33,438.75c0-4.1-2.67-7.27-6.81-7.27c-4.18,0-6.85,3.16-6.85,7.27
		c0,4.07,2.67,7.27,6.85,7.27C247.66,446.01,250.33,442.81,250.33,438.75"/>
	<polygon class="st0" points="267.48,451.28 267.48,426.17 285.89,426.17 285.89,431.82 273.95,431.82 273.95,435.74 285.62,435.74 
		285.62,441.38 273.95,441.38 273.95,451.28 	"/>
	<path class="st0" d="M312.27,447.74l3.43-4.86c1.81,1.81,4.59,3.31,8.02,3.31c2.22,0,3.58-0.87,3.58-2.07
		c0-1.32-1.88-1.73-4.29-2.22c-4.14-0.83-9.93-1.96-9.93-8.13c0-4.22,3.57-7.98,10.01-7.98c4.03,0,7.53,1.21,10.2,3.5l-3.54,4.63
		c-2.11-1.73-4.86-2.6-7.34-2.6c-1.88,0-2.71,0.75-2.71,1.81c0,1.21,1.92,1.62,4.33,2.18c4.14,0.87,9.86,2.11,9.86,8.02
		c0,5.05-3.73,8.4-10.46,8.4C318.33,451.74,314.79,450.15,312.27,447.74"/>
	<polygon class="st0" points="350.66,451.28 350.66,431.82 343.62,431.82 343.62,426.17 364.14,426.17 364.14,431.82 357.14,431.82 
		357.14,451.28 	"/>
	<path class="st0" d="M387.82,451.28l-4.22-8.43h-3.31v8.43h-6.48v-25.11h12.57c5.57,0,8.73,3.69,8.73,8.36
		c0,4.36-2.67,6.7-5.01,7.53l5.12,9.22H387.82z M388.54,434.49c0-1.69-1.43-2.67-3.12-2.67h-5.12v5.38h5.12
		C387.11,437.2,388.54,436.26,388.54,434.49"/>
	<polygon class="st0" points="405.95,451.28 405.95,426.17 424.35,426.17 424.35,431.82 412.42,431.82 412.42,435.74 424.09,435.74 
		424.09,441.38 412.42,441.38 412.42,445.64 424.35,445.64 424.35,451.28 	"/>
	<polygon class="st0" points="452.92,451.28 442.3,436.75 442.3,451.28 435.83,451.28 435.83,426.17 442.49,426.17 452.65,439.99 
		452.65,426.17 459.16,426.17 459.16,451.28 	"/>
	<path class="st0" d="M469.69,438.75c0-7.98,6.1-12.99,13.59-12.99c5.61,0,8.99,2.97,10.73,6.1l-5.42,2.82
		c-0.94-1.66-2.86-3.2-5.31-3.2c-4.1,0-7,3.16-7,7.27c0,4.1,2.9,7.27,7,7.27c1.84,0,3.73-0.76,4.63-1.51v-1.96h-5.65v-5.68h12.12
		v9.97c-2.71,2.98-6.36,4.89-11.1,4.89C475.79,451.73,469.69,446.73,469.69,438.75"/>
	<polygon class="st0" points="510.57,451.28 510.57,431.82 503.53,431.82 503.53,426.17 524.04,426.17 524.04,431.82 517.05,431.82 
		517.05,451.28 	"/>
	<polygon class="st0" points="550.63,451.28 550.63,441.19 540.21,441.19 540.21,451.28 533.73,451.28 533.73,426.17 540.21,426.17 
		540.21,435.55 550.63,435.55 550.63,426.17 557.11,426.17 557.11,451.28 	"/>
	<path class="st1" d="M193.64,396.41c0,42.51-34.47,76.98-76.98,76.98c-42.51,0-76.98-34.47-76.98-76.98s34.47-76.98,76.98-76.98
		C159.17,319.43,193.64,353.9,193.64,396.41"/>
	<path class="st2" d="M119.62,325.41v63.86l45.16-45.16C152.35,332.66,136.51,326.1,119.62,325.41"/>
	<path class="st3" d="M168.96,348.3l-45.16,45.16h63.86C186.98,376.56,180.41,360.72,168.96,348.3"/>
	<path class="st4" d="M187.66,399.37H123.8l45.16,45.16C180.41,432.1,186.98,416.26,187.66,399.37"/>
	<path class="st5" d="M119.62,467.42c16.89-0.69,32.73-7.25,45.16-18.7l-45.16-45.16V467.42z"/>
	<path class="st6" d="M109.52,399.37H45.66c0.69,16.89,7.25,32.73,18.7,45.16L109.52,399.37z"/>
	<path class="st7" d="M113.7,467.42v-63.86l-45.16,45.16C80.97,460.17,96.81,466.73,113.7,467.42"/>
	<path class="st8" d="M113.7,389.27v-63.86c-16.89,0.69-32.73,7.25-45.16,18.7L113.7,389.27z"/>
	<path class="st9" d="M64.36,348.3c-11.46,12.43-18.02,28.27-18.7,45.16h63.86L64.36,348.3z"/>
</g>
</svg>
